<svg width="16" height="16" viewBox="0 0 16 16" fill="none" xmlns="http://www.w3.org/2000/svg">
<path d="M15 7.00001H3.83005L8.71005 2.12001C9.10005 1.73001 9.10005 1.09001 8.71005 0.700006C8.61753 0.607302 8.50764 0.533755 8.38667 0.483573C8.2657 0.433392 8.13602 0.407562 8.00505 0.407562C7.87408 0.407562 7.7444 0.433392 7.62342 0.483573C7.50245 0.533755 7.39256 0.607302 7.30005 0.700006L0.710047 7.29001C0.617343 7.38252 0.543796 7.49241 0.493614 7.61338C0.443433 7.73436 0.417603 7.86404 0.417603 7.99501C0.417603 8.12597 0.443433 8.25566 0.493614 8.37663C0.543796 8.4976 0.617343 8.60749 0.710047 8.70001L7.30005 15.29C7.39263 15.3826 7.50254 15.456 7.6235 15.5061C7.74447 15.5562 7.87412 15.582 8.00505 15.582C8.13598 15.582 8.26563 15.5562 8.38659 15.5061C8.50755 15.456 8.61746 15.3826 8.71005 15.29C8.80263 15.1974 8.87607 15.0875 8.92617 14.9665C8.97628 14.8456 9.00207 14.7159 9.00207 14.585C9.00207 14.4541 8.97628 14.3244 8.92617 14.2035C8.87607 14.0825 8.80263 13.9726 8.71005 13.88L3.83005 9.00001H15C15.55 9.00001 16 8.55001 16 8.00001C16 7.45001 15.55 7.00001 15 7.00001Z" fill="white"/>
</svg>
