<svg width="28" height="28" viewBox="0 0 28 28" fill="none" xmlns="http://www.w3.org/2000/svg">
<path d="M7.25 4.5C6.52065 4.5 5.82118 4.78973 5.30546 5.30546C4.78973 5.82118 4.5 6.52065 4.5 7.25V20.75C4.5 21.4793 4.78973 22.1788 5.30546 22.6945C5.82118 23.2103 6.52065 23.5 7.25 23.5H20.75C21.4793 23.5 22.1788 23.2103 22.6945 22.6945C23.2103 22.1788 23.5 21.4793 23.5 20.75V16.25C23.5 16.0511 23.579 15.8603 23.7197 15.7197C23.8603 15.579 24.0511 15.5 24.25 15.5C24.4489 15.5 24.6397 15.579 24.7803 15.7197C24.921 15.8603 25 16.0511 25 16.25V20.75C25 21.8772 24.5522 22.9582 23.7552 23.7552C22.9582 24.5522 21.8772 25 20.75 25H7.25C6.12283 25 5.04183 24.5522 4.2448 23.7552C3.44777 22.9582 3 21.8772 3 20.75V7.25C3 6.12283 3.44777 5.04183 4.2448 4.2448C5.04183 3.44777 6.12283 3 7.25 3H11.75C11.9489 3 12.1397 3.07902 12.2803 3.21967C12.421 3.36032 12.5 3.55109 12.5 3.75C12.5 3.94891 12.421 4.13968 12.2803 4.28033C12.1397 4.42098 11.9489 4.5 11.75 4.5H7.25ZM15.5 3.75C15.5 3.55109 15.579 3.36032 15.7197 3.21967C15.8603 3.07902 16.0511 3 16.25 3H24.25C24.4489 3 24.6397 3.07902 24.7803 3.21967C24.921 3.36032 25 3.55109 25 3.75V11.75C25 11.9489 24.921 12.1397 24.7803 12.2803C24.6397 12.421 24.4489 12.5 24.25 12.5C24.0511 12.5 23.8603 12.421 23.7197 12.2803C23.579 12.1397 23.5 11.9489 23.5 11.75V5.56L17.28 11.78C17.2113 11.8537 17.1285 11.9128 17.0365 11.9538C16.9445 11.9948 16.8452 12.0168 16.7445 12.0186C16.6438 12.0204 16.5438 12.0018 16.4504 11.9641C16.357 11.9264 16.2722 11.8703 16.201 11.799C16.1297 11.7278 16.0736 11.643 16.0359 11.5496C15.9982 11.4562 15.9796 11.3562 15.9814 11.2555C15.9832 11.1548 16.0052 11.0555 16.0462 10.9635C16.0872 10.8715 16.1463 10.7887 16.22 10.72L22.44 4.5H16.25C16.0511 4.5 15.8603 4.42098 15.7197 4.28033C15.579 4.13968 15.5 3.94891 15.5 3.75Z" fill="#545454"/>
</svg>
